<?xml version="1.0" encoding="UTF-8"?>
<svg xmlns="http://www.w3.org/2000/svg" xmlns:xlink="http://www.w3.org/1999/xlink" width="16px" height="16px" viewBox="0 0 16 16" version="1.1">
<g id="surface1">
<path style=" stroke:none;fill-rule:evenodd;fill:rgb(26.666667%,37.647059%,62.745098%);fill-opacity:1;" d="M 8.546875 16 L 0.882812 16 C 0.394531 16 0 15.605469 0 15.117188 L 0 0.882812 C 0 0.394531 0.394531 0 0.882812 0 L 15.117188 0 C 15.605469 0 16 0.394531 16 0.882812 L 16 15.117188 C 16 15.605469 15.605469 16 15.117188 16 L 11.039062 16 L 11.039062 9.804688 L 13.121094 9.804688 L 13.429688 7.390625 L 11.039062 7.390625 L 11.039062 5.847656 C 11.039062 5.148438 11.234375 4.671875 12.238281 4.671875 L 13.515625 4.671875 L 13.515625 2.511719 C 13.292969 2.480469 12.535156 2.417969 11.652344 2.417969 C 9.808594 2.417969 8.546875 3.542969 8.546875 5.609375 L 8.546875 7.390625 L 6.460938 7.390625 L 6.460938 9.804688 L 8.546875 9.804688 Z M 8.546875 16 "/>
</g>
</svg>
